<svg width="18" height="19" viewBox="0 0 18 19" fill="none" xmlns="http://www.w3.org/2000/svg">
<path d="M12.2843 17.7539H6.69744L6.95138 16.9921L7.20533 12.9289V12.1671L5.93559 11.9131L4.15796 11.1513L3.39612 9.62758L2.63428 7.84995L3.14217 5.56442L3.65007 4.04074V1.24731H4.41191C4.61507 1.24731 5.17375 1.75521 5.4277 2.00916L6.18954 2.2631C7.20533 2.17845 9.2877 2.05995 9.49086 2.2631C9.69401 2.46626 10.9299 2.51705 11.5224 2.51705L12.7922 2.00916L15.0777 1.24731C15.1623 1.41661 15.3316 1.806 15.3316 2.00916V4.29468L16.0935 5.56442L16.3474 7.34205L15.8395 10.1355L14.3159 11.9131L12.0303 12.6749L12.2843 17.7539Z" fill="#FF473C"/>
<path d="M6.95155 14.9809C3.14234 16.1236 3.14234 13.0763 1.61865 12.6954M12.2844 17.2664V14.3181C12.313 13.9548 12.2639 13.5896 12.1405 13.2468C12.017 12.9039 11.822 12.5913 11.5683 12.3297C13.9605 12.063 16.4746 11.1564 16.4746 6.99678C16.4744 5.93312 16.0652 4.91025 15.3318 4.13987C15.6791 3.20929 15.6545 2.18068 15.2632 1.26773C15.2632 1.26773 14.3643 1.00108 12.2844 2.39525C10.5383 1.92201 8.69768 1.92201 6.95155 2.39525C4.87172 1.00108 3.97274 1.26773 3.97274 1.26773C3.58144 2.18068 3.55689 3.20929 3.90418 4.13987C3.16529 4.91596 2.75572 5.94808 2.76142 7.01963C2.76142 11.1488 5.27549 12.0554 7.66768 12.3525C7.41703 12.6115 7.22373 12.9204 7.10034 13.2591C6.97696 13.5977 6.92626 13.9585 6.95155 14.3181V17.2664" stroke="#101010" stroke-width="1.52368" stroke-linecap="round" stroke-linejoin="round"/>
<path d="M2.63428 13.4368C3.14217 13.5214 4.25954 13.9447 4.66586 14.9605C5.07217 15.9762 6.69744 16.0609 7.45928 15.9762" stroke="#FF473C" stroke-width="1.52368" stroke-linecap="round" stroke-linejoin="round"/>
</svg>
