<svg width="18" height="17" viewBox="0 0 18 17" fill="none" xmlns="http://www.w3.org/2000/svg">
<path d="M15.103 8.5005C15.103 11.8665 12.3743 14.5952 9.00831 14.5952C7.72444 14.5952 6.53328 14.1983 5.5509 13.5204L3.46764 14.0412L4.01355 11.994C3.32036 11.0048 2.91357 9.80014 2.91357 8.5005C2.91357 5.13447 5.64228 2.40576 9.00831 2.40576C12.3743 2.40576 15.103 5.13447 15.103 8.5005Z" fill="#FF473C"/>
<path fill-rule="evenodd" clip-rule="evenodd" d="M9.00799 15.6112C12.935 15.6112 16.1185 12.4277 16.1185 8.50066C16.1185 4.57363 12.935 1.39014 9.00799 1.39014C5.08095 1.39014 1.89746 4.57363 1.89746 8.50066C1.89746 9.77593 2.23318 10.9728 2.82105 12.0077L1.89746 15.6112L5.61264 14.7497C6.62158 15.2991 7.77833 15.6112 9.00799 15.6112ZM9.00799 14.5173C12.3309 14.5173 15.0246 11.8235 15.0246 8.50066C15.0246 5.17779 12.3309 2.48406 9.00799 2.48406C5.68511 2.48406 2.99139 5.17779 2.99139 8.50066C2.99139 9.78364 3.39296 10.9728 4.07726 11.9494L3.53835 13.9703L5.5949 13.4562C6.56469 14.1254 7.74057 14.5173 9.00799 14.5173Z" fill="#101010"/>
<path d="M7.23054 5.19934C7.06148 4.85978 6.80214 4.88984 6.54014 4.88984C6.0719 4.88984 5.3418 5.4507 5.3418 6.49451C5.3418 7.34997 5.71876 8.2864 6.98898 9.68722C8.21485 11.0391 9.82556 11.7385 11.1628 11.7146C12.4999 11.6908 12.7751 10.5401 12.7751 10.1515C12.7751 9.9793 12.6682 9.89336 12.5945 9.87001C12.1389 9.65132 11.2984 9.24384 11.1072 9.16728C10.916 9.09072 10.8161 9.19427 10.7541 9.25061C10.5806 9.41587 10.2369 9.9029 10.1192 10.0124C10.0015 10.122 9.82602 10.0666 9.75299 10.0251C9.48428 9.91731 8.7557 9.59324 8.17494 9.03026C7.45671 8.33402 7.41456 8.09447 7.27924 7.88124C7.17098 7.71066 7.25042 7.606 7.29006 7.56026C7.44481 7.38171 7.65848 7.10603 7.75431 6.96904C7.85013 6.83205 7.77406 6.62406 7.72842 6.49451C7.5321 5.93738 7.36579 5.471 7.23054 5.19934Z" fill="#101010"/>
</svg>
